<svg width="100" height="100" viewBox="0 0 100 100" fill="none" xmlns="http://www.w3.org/2000/svg">
<path d="M100 50C100 77.6139 77.6139 100 50 100C22.3889 100 0 77.6139 0 50C0 22.3889 22.3889 0 50 0C77.6139 0 100 22.3889 100 50Z" fill="#FF0000"/>
<path d="M70.7917 82.9972C70.6667 82.5 67.5472 70.8334 50 70.8334C32.45 70.8334 29.3333 82.5 29.2083 82.9972C29.0556 83.6 29.3278 84.225 29.8667 84.5361C30.4083 84.8389 31.0861 84.7556 31.5333 84.3223C31.5861 84.2695 36.9611 79.1667 50 79.1667C63.0389 79.1667 68.4167 84.2695 68.4667 84.3195C68.7333 84.5834 69.0889 84.7222 69.4444 84.7222C69.6778 84.7222 69.9139 84.6639 70.1278 84.5445C70.6722 84.2334 70.9444 83.6028 70.7917 82.9972V82.9972ZM43.6305 48.0361C34.5889 38.9945 20.0583 38.8889 19.4444 38.8889C17.9111 38.8889 16.6694 40.1306 16.6694 41.6611C16.6667 43.1945 17.9083 44.4389 19.4417 44.4445C19.5222 44.4445 24.7889 44.5056 30.5056 46.4917C28.8583 48.2695 27.7778 51.0306 27.7778 54.1667C27.7778 59.5389 30.8861 63.8889 34.7222 63.8889C38.5583 63.8889 41.6667 59.5389 41.6667 54.1667C41.6667 53.6834 41.6139 53.2222 41.5639 52.7584C41.6 52.7584 41.6333 52.7778 41.6667 52.7778C42.3778 52.7778 43.0889 52.5056 43.6305 51.9639C44.7167 50.8778 44.7167 49.1222 43.6305 48.0361V48.0361ZM80.5556 38.8889C79.9417 38.8889 65.4139 38.9945 56.3694 48.0361C55.2833 49.1222 55.2833 50.8778 56.3694 51.9639C56.9111 52.5056 57.6222 52.7778 58.3333 52.7778C58.3694 52.7778 58.4 52.7584 58.4333 52.7584C58.3889 53.2222 58.3333 53.6834 58.3333 54.1667C58.3333 59.5389 61.4417 63.8889 65.2778 63.8889C69.1139 63.8889 72.2222 59.5389 72.2222 54.1667C72.2222 51.0306 71.1417 48.2695 69.4944 46.4917C75.2111 44.5056 80.4778 44.4445 80.5611 44.4445C82.0917 44.4389 83.3333 43.1945 83.3306 41.6611C83.3278 40.1306 82.0889 38.8889 80.5556 38.8889V38.8889Z" fill="black"/>
</svg>
