<svg width="100" height="100" viewBox="0 0 100 100" fill="none" xmlns="http://www.w3.org/2000/svg">
<path d="M50 100C77.6142 100 100 77.6142 100 50C100 22.3858 77.6142 0 50 0C22.3858 0 0 22.3858 0 50C0 77.6142 22.3858 100 50 100Z" fill="#E0CA00"/>
<path d="M70.7916 76.0528C70.6666 75.5556 67.5472 63.8889 50 63.8889C32.45 63.8889 29.3333 75.5556 29.2083 76.0528C29.0555 76.6556 29.3277 77.2806 29.8666 77.5917C30.4083 77.9 31.0861 77.8084 31.5333 77.3778C31.5861 77.325 36.9611 72.2222 50 72.2222C63.0388 72.2222 68.4166 77.325 68.4666 77.375C68.7333 77.6389 69.0888 77.7778 69.4444 77.7778C69.6777 77.7778 69.9138 77.7195 70.1277 77.6C70.6722 77.2889 70.9444 76.6584 70.7916 76.0528Z" fill="black"/>
<path d="M33.3334 47.2222C37.1687 47.2222 40.2778 42.8694 40.2778 37.5C40.2778 32.1306 37.1687 27.7778 33.3334 27.7778C29.498 27.7778 26.3889 32.1306 26.3889 37.5C26.3889 42.8694 29.498 47.2222 33.3334 47.2222Z" fill="black"/>
<path d="M66.6666 47.2222C70.5019 47.2222 73.6111 42.8694 73.6111 37.5C73.6111 32.1306 70.5019 27.7778 66.6666 27.7778C62.8313 27.7778 59.7222 32.1306 59.7222 37.5C59.7222 42.8694 62.8313 47.2222 66.6666 47.2222Z" fill="black"/>
</svg>
