<svg width="100" height="100" viewBox="0 0 100 100" fill="none" xmlns="http://www.w3.org/2000/svg">
<path d="M50 100C77.6142 100 100 77.6142 100 50C100 22.3858 77.6142 0 50 0C22.3858 0 0 22.3858 0 50C0 77.6142 22.3858 100 50 100Z" fill="#00FF00"/>
<path d="M29.2083 65.6139C29.3333 66.1111 32.4527 77.7778 49.9999 77.7778C67.5499 77.7778 70.6666 66.1111 70.7916 65.6139C70.9444 65.0111 70.6721 64.3861 70.1333 64.075C69.5916 63.7667 68.9138 63.8584 68.4666 64.2889C68.4138 64.3417 63.0388 69.4445 49.9999 69.4445C36.961 69.4445 31.5833 64.3417 31.5333 64.2917C31.2666 64.0278 30.911 63.8889 30.5555 63.8889C30.3221 63.8889 30.086 63.9472 29.8721 64.0667C29.3277 64.3778 29.0555 65.0084 29.2083 65.6139V65.6139Z" fill="black"/>
<path d="M33.3334 47.2222C37.1687 47.2222 40.2778 42.8694 40.2778 37.5C40.2778 32.1306 37.1687 27.7778 33.3334 27.7778C29.498 27.7778 26.3889 32.1306 26.3889 37.5C26.3889 42.8694 29.498 47.2222 33.3334 47.2222Z" fill="black"/>
<path d="M66.6667 47.2222C70.502 47.2222 73.6111 42.8694 73.6111 37.5C73.6111 32.1306 70.502 27.7778 66.6667 27.7778C62.8314 27.7778 59.7222 32.1306 59.7222 37.5C59.7222 42.8694 62.8314 47.2222 66.6667 47.2222Z" fill="black"/>
</svg>
