<svg width="796" height="71" viewBox="0 0 796 71" fill="none" xmlns="http://www.w3.org/2000/svg">
<path d="M26.5156 1.375V70H17.8438V12.2031L0.359375 18.5781V10.75L25.1562 1.375H26.5156ZM120.547 62.875V70H75.875V63.7656L98.2344 38.875C100.984 35.8125 103.109 33.2188 104.609 31.0938C106.141 28.9375 107.203 27.0156 107.797 25.3281C108.422 23.6094 108.734 21.8594 108.734 20.0781C108.734 17.8281 108.266 15.7969 107.328 13.9844C106.422 12.1406 105.078 10.6719 103.297 9.57812C101.516 8.48438 99.3594 7.9375 96.8281 7.9375C93.7969 7.9375 91.2656 8.53125 89.2344 9.71875C87.2344 10.875 85.7344 12.5 84.7344 14.5938C83.7344 16.6875 83.2344 19.0938 83.2344 21.8125H74.5625C74.5625 17.9688 75.4062 14.4531 77.0938 11.2656C78.7812 8.07812 81.2812 5.54688 84.5938 3.67188C87.9062 1.76562 91.9844 0.8125 96.8281 0.8125C101.141 0.8125 104.828 1.57812 107.891 3.10938C110.953 4.60938 113.297 6.73437 114.922 9.48438C116.578 12.2031 117.406 15.3906 117.406 19.0469C117.406 21.0469 117.062 23.0781 116.375 25.1406C115.719 27.1719 114.797 29.2031 113.609 31.2344C112.453 33.2656 111.094 35.2656 109.531 37.2344C108 39.2031 106.359 41.1406 104.609 43.0469L86.3281 62.875H120.547ZM166.297 31.6094H172.484C175.516 31.6094 178.016 31.1094 179.984 30.1094C181.984 29.0781 183.469 27.6875 184.438 25.9375C185.438 24.1562 185.938 22.1562 185.938 19.9375C185.938 17.3125 185.5 15.1094 184.625 13.3281C183.75 11.5469 182.438 10.2031 180.688 9.29688C178.938 8.39063 176.719 7.9375 174.031 7.9375C171.594 7.9375 169.438 8.42187 167.562 9.39062C165.719 10.3281 164.266 11.6719 163.203 13.4219C162.172 15.1719 161.656 17.2344 161.656 19.6094H152.984C152.984 16.1406 153.859 12.9844 155.609 10.1406C157.359 7.29687 159.812 5.03125 162.969 3.34375C166.156 1.65625 169.844 0.8125 174.031 0.8125C178.156 0.8125 181.766 1.54688 184.859 3.01562C187.953 4.45313 190.359 6.60938 192.078 9.48438C193.797 12.3281 194.656 15.875 194.656 20.125C194.656 21.8438 194.25 23.6875 193.438 25.6562C192.656 27.5938 191.422 29.4062 189.734 31.0938C188.078 32.7812 185.922 34.1719 183.266 35.2656C180.609 36.3281 177.422 36.8594 173.703 36.8594H166.297V31.6094ZM166.297 38.7344V33.5312H173.703C178.047 33.5312 181.641 34.0469 184.484 35.0781C187.328 36.1094 189.562 37.4844 191.188 39.2031C192.844 40.9219 194 42.8125 194.656 44.875C195.344 46.9062 195.688 48.9375 195.688 50.9688C195.688 54.1562 195.141 56.9844 194.047 59.4531C192.984 61.9219 191.469 64.0156 189.5 65.7344C187.562 67.4531 185.281 68.75 182.656 69.625C180.031 70.5 177.172 70.9375 174.078 70.9375C171.109 70.9375 168.312 70.5156 165.688 69.6719C163.094 68.8281 160.797 67.6094 158.797 66.0156C156.797 64.3906 155.234 62.4062 154.109 60.0625C152.984 57.6875 152.422 54.9844 152.422 51.9531H161.094C161.094 54.3281 161.609 56.4062 162.641 58.1875C163.703 59.9688 165.203 61.3594 167.141 62.3594C169.109 63.3281 171.422 63.8125 174.078 63.8125C176.734 63.8125 179.016 63.3594 180.922 62.4531C182.859 61.5156 184.344 60.1094 185.375 58.2344C186.438 56.3594 186.969 54 186.969 51.1562C186.969 48.3125 186.375 45.9844 185.188 44.1719C184 42.3281 182.312 40.9688 180.125 40.0938C177.969 39.1875 175.422 38.7344 172.484 38.7344H166.297ZM277.578 47.0312V54.1562H228.266V49.0469L258.828 1.75H265.906L258.312 15.4375L238.109 47.0312H277.578ZM268.062 1.75V70H259.391V1.75H268.062ZM320.234 37.5156L313.297 35.7344L316.719 1.75H351.734V9.76562H324.078L322.016 28.3281C323.266 27.6094 324.844 26.9375 326.75 26.3125C328.688 25.6875 330.906 25.375 333.406 25.375C336.562 25.375 339.391 25.9219 341.891 27.0156C344.391 28.0781 346.516 29.6094 348.266 31.6094C350.047 33.6094 351.406 36.0156 352.344 38.8281C353.281 41.6406 353.75 44.7812 353.75 48.25C353.75 51.5312 353.297 54.5469 352.391 57.2969C351.516 60.0469 350.188 62.4531 348.406 64.5156C346.625 66.5469 344.375 68.125 341.656 69.25C338.969 70.375 335.797 70.9375 332.141 70.9375C329.391 70.9375 326.781 70.5625 324.312 69.8125C321.875 69.0312 319.688 67.8594 317.75 66.2969C315.844 64.7031 314.281 62.7344 313.062 60.3906C311.875 58.0156 311.125 55.2344 310.812 52.0469H319.062C319.438 54.6094 320.188 56.7656 321.312 58.5156C322.438 60.2656 323.906 61.5938 325.719 62.5C327.562 63.375 329.703 63.8125 332.141 63.8125C334.203 63.8125 336.031 63.4531 337.625 62.7344C339.219 62.0156 340.562 60.9844 341.656 59.6406C342.75 58.2969 343.578 56.6719 344.141 54.7656C344.734 52.8594 345.031 50.7188 345.031 48.3438C345.031 46.1875 344.734 44.1875 344.141 42.3438C343.547 40.5 342.656 38.8906 341.469 37.5156C340.312 36.1406 338.891 35.0781 337.203 34.3281C335.516 33.5469 333.578 33.1562 331.391 33.1562C328.484 33.1562 326.281 33.5469 324.781 34.3281C323.312 35.1094 321.797 36.1719 320.234 37.5156ZM420.359 1.65625H421.109V9.01562H420.359C415.766 9.01562 411.922 9.76562 408.828 11.2656C405.734 12.7344 403.281 14.7188 401.469 17.2188C399.656 19.6875 398.344 22.4688 397.531 25.5625C396.75 28.6562 396.359 31.7969 396.359 34.9844V45.0156C396.359 48.0469 396.719 50.7344 397.438 53.0781C398.156 55.3906 399.141 57.3438 400.391 58.9375C401.641 60.5312 403.047 61.7344 404.609 62.5469C406.203 63.3594 407.859 63.7656 409.578 63.7656C411.578 63.7656 413.359 63.3906 414.922 62.6406C416.484 61.8594 417.797 60.7812 418.859 59.4062C419.953 58 420.781 56.3438 421.344 54.4375C421.906 52.5312 422.188 50.4375 422.188 48.1562C422.188 46.125 421.938 44.1719 421.438 42.2969C420.938 40.3906 420.172 38.7031 419.141 37.2344C418.109 35.7344 416.812 34.5625 415.25 33.7188C413.719 32.8438 411.891 32.4062 409.766 32.4062C407.359 32.4062 405.109 33 403.016 34.1875C400.953 35.3438 399.25 36.875 397.906 38.7812C396.594 40.6562 395.844 42.7031 395.656 44.9219L391.062 44.875C391.5 41.375 392.312 38.3906 393.5 35.9219C394.719 33.4219 396.219 31.3906 398 29.8281C399.812 28.2344 401.828 27.0781 404.047 26.3594C406.297 25.6094 408.672 25.2344 411.172 25.2344C414.578 25.2344 417.516 25.875 419.984 27.1562C422.453 28.4375 424.484 30.1562 426.078 32.3125C427.672 34.4375 428.844 36.8438 429.594 39.5312C430.375 42.1875 430.766 44.9219 430.766 47.7344C430.766 50.9531 430.312 53.9688 429.406 56.7812C428.5 59.5938 427.141 62.0625 425.328 64.1875C423.547 66.3125 421.344 67.9688 418.719 69.1562C416.094 70.3438 413.047 70.9375 409.578 70.9375C405.891 70.9375 402.672 70.1875 399.922 68.6875C397.172 67.1562 394.891 65.125 393.078 62.5938C391.266 60.0625 389.906 57.25 389 54.1562C388.094 51.0625 387.641 47.9219 387.641 44.7344V40.6562C387.641 35.8438 388.125 31.125 389.094 26.5C390.062 21.875 391.734 17.6875 394.109 13.9375C396.516 10.1875 399.844 7.20312 404.094 4.98438C408.344 2.76563 413.766 1.65625 420.359 1.65625ZM509 1.75V6.625L480.734 70H471.594L499.812 8.875H462.875V1.75H509ZM585.734 51.5312C585.734 55.6875 584.766 59.2188 582.828 62.125C580.922 65 578.328 67.1875 575.047 68.6875C571.797 70.1875 568.125 70.9375 564.031 70.9375C559.938 70.9375 556.25 70.1875 552.969 68.6875C549.688 67.1875 547.094 65 545.188 62.125C543.281 59.2188 542.328 55.6875 542.328 51.5312C542.328 48.8125 542.844 46.3281 543.875 44.0781C544.938 41.7969 546.422 39.8125 548.328 38.125C550.266 36.4375 552.547 35.1406 555.172 34.2344C557.828 33.2969 560.75 32.8281 563.938 32.8281C568.125 32.8281 571.859 33.6406 575.141 35.2656C578.422 36.8594 581 39.0625 582.875 41.875C584.781 44.6875 585.734 47.9062 585.734 51.5312ZM577.016 51.3438C577.016 48.8125 576.469 46.5781 575.375 44.6406C574.281 42.6719 572.75 41.1406 570.781 40.0469C568.812 38.9531 566.531 38.4062 563.938 38.4062C561.281 38.4062 558.984 38.9531 557.047 40.0469C555.141 41.1406 553.656 42.6719 552.594 44.6406C551.531 46.5781 551 48.8125 551 51.3438C551 53.9688 551.516 56.2188 552.547 58.0938C553.609 59.9375 555.109 61.3594 557.047 62.3594C559.016 63.3281 561.344 63.8125 564.031 63.8125C566.719 63.8125 569.031 63.3281 570.969 62.3594C572.906 61.3594 574.391 59.9375 575.422 58.0938C576.484 56.2188 577.016 53.9688 577.016 51.3438ZM584.141 19.5156C584.141 22.8281 583.266 25.8125 581.516 28.4688C579.766 31.125 577.375 33.2188 574.344 34.75C571.312 36.2812 567.875 37.0469 564.031 37.0469C560.125 37.0469 556.641 36.2812 553.578 34.75C550.547 33.2188 548.172 31.125 546.453 28.4688C544.734 25.8125 543.875 22.8281 543.875 19.5156C543.875 15.5469 544.734 12.1719 546.453 9.39062C548.203 6.60938 550.594 4.48437 553.625 3.01562C556.656 1.54688 560.109 0.8125 563.984 0.8125C567.891 0.8125 571.359 1.54688 574.391 3.01562C577.422 4.48437 579.797 6.60938 581.516 9.39062C583.266 12.1719 584.141 15.5469 584.141 19.5156ZM575.469 19.6562C575.469 17.375 574.984 15.3594 574.016 13.6094C573.047 11.8594 571.703 10.4844 569.984 9.48438C568.266 8.45312 566.266 7.9375 563.984 7.9375C561.703 7.9375 559.703 8.42187 557.984 9.39062C556.297 10.3281 554.969 11.6719 554 13.4219C553.062 15.1719 552.594 17.25 552.594 19.6562C552.594 22 553.062 24.0469 554 25.7969C554.969 27.5469 556.312 28.9062 558.031 29.875C559.75 30.8438 561.75 31.3281 564.031 31.3281C566.312 31.3281 568.297 30.8438 569.984 29.875C571.703 28.9062 573.047 27.5469 574.016 25.7969C574.984 24.0469 575.469 22 575.469 19.6562ZM629.141 62.7344H630.031C635.031 62.7344 639.094 62.0312 642.219 60.625C645.344 59.2188 647.75 57.3281 649.438 54.9531C651.125 52.5781 652.281 49.9062 652.906 46.9375C653.531 43.9375 653.844 40.8594 653.844 37.7031V27.25C653.844 24.1562 653.484 21.4062 652.766 19C652.078 16.5938 651.109 14.5781 649.859 12.9531C648.641 11.3281 647.25 10.0938 645.688 9.25C644.125 8.40625 642.469 7.98438 640.719 7.98438C638.719 7.98438 636.922 8.39063 635.328 9.20312C633.766 9.98438 632.438 11.0937 631.344 12.5312C630.281 13.9688 629.469 15.6562 628.906 17.5938C628.344 19.5312 628.062 21.6406 628.062 23.9219C628.062 25.9531 628.312 27.9219 628.812 29.8281C629.312 31.7344 630.078 33.4531 631.109 34.9844C632.141 36.5156 633.422 37.7344 634.953 38.6406C636.516 39.5156 638.344 39.9531 640.438 39.9531C642.375 39.9531 644.188 39.5781 645.875 38.8281C647.594 38.0469 649.109 37 650.422 35.6875C651.766 34.3438 652.828 32.8281 653.609 31.1406C654.422 29.4531 654.891 27.6875 655.016 25.8438H659.141C659.141 28.4375 658.625 31 657.594 33.5312C656.594 36.0312 655.188 38.3125 653.375 40.375C651.562 42.4375 649.438 44.0938 647 45.3438C644.562 46.5625 641.906 47.1719 639.031 47.1719C635.656 47.1719 632.734 46.5156 630.266 45.2031C627.797 43.8906 625.766 42.1406 624.172 39.9531C622.609 37.7656 621.438 35.3281 620.656 32.6406C619.906 29.9219 619.531 27.1719 619.531 24.3906C619.531 21.1406 619.984 18.0938 620.891 15.25C621.797 12.4062 623.141 9.90625 624.922 7.75C626.703 5.5625 628.906 3.85938 631.531 2.64062C634.188 1.42188 637.25 0.8125 640.719 0.8125C644.625 0.8125 647.953 1.59375 650.703 3.15625C653.453 4.71875 655.688 6.8125 657.406 9.4375C659.156 12.0625 660.438 15.0156 661.25 18.2969C662.062 21.5781 662.469 24.9531 662.469 28.4219V31.5625C662.469 35.0938 662.234 38.6875 661.766 42.3438C661.328 45.9688 660.469 49.4375 659.188 52.75C657.938 56.0625 656.109 59.0312 653.703 61.6562C651.297 64.25 648.156 66.3125 644.281 67.8438C640.438 69.3438 635.688 70.0938 630.031 70.0938H629.141V62.7344ZM726.828 1.375V70H718.156V12.2031L700.672 18.5781V10.75L725.469 1.375H726.828ZM795.172 30.4375V40.8438C795.172 46.4375 794.672 51.1562 793.672 55C792.672 58.8438 791.234 61.9375 789.359 64.2812C787.484 66.625 785.219 68.3281 782.562 69.3906C779.938 70.4219 776.969 70.9375 773.656 70.9375C771.031 70.9375 768.609 70.6094 766.391 69.9531C764.172 69.2969 762.172 68.25 760.391 66.8125C758.641 65.3438 757.141 63.4375 755.891 61.0938C754.641 58.75 753.688 55.9062 753.031 52.5625C752.375 49.2188 752.047 45.3125 752.047 40.8438V30.4375C752.047 24.8438 752.547 20.1562 753.547 16.375C754.578 12.5937 756.031 9.5625 757.906 7.28125C759.781 4.96875 762.031 3.3125 764.656 2.3125C767.312 1.3125 770.281 0.8125 773.562 0.8125C776.219 0.8125 778.656 1.14062 780.875 1.79688C783.125 2.42187 785.125 3.4375 786.875 4.84375C788.625 6.21875 790.109 8.0625 791.328 10.375C792.578 12.6563 793.531 15.4531 794.188 18.7656C794.844 22.0781 795.172 25.9688 795.172 30.4375ZM786.453 42.25V28.9844C786.453 25.9219 786.266 23.2344 785.891 20.9219C785.547 18.5781 785.031 16.5781 784.344 14.9219C783.656 13.2656 782.781 11.9219 781.719 10.8906C780.688 9.85938 779.484 9.10938 778.109 8.64062C776.766 8.14062 775.25 7.89062 773.562 7.89062C771.5 7.89062 769.672 8.28125 768.078 9.0625C766.484 9.8125 765.141 11.0156 764.047 12.6719C762.984 14.3281 762.172 16.5 761.609 19.1875C761.047 21.875 760.766 25.1406 760.766 28.9844V42.25C760.766 45.3125 760.938 48.0156 761.281 50.3594C761.656 52.7031 762.203 54.7344 762.922 56.4531C763.641 58.1406 764.516 59.5312 765.547 60.625C766.578 61.7188 767.766 62.5312 769.109 63.0625C770.484 63.5625 772 63.8125 773.656 63.8125C775.781 63.8125 777.641 63.4062 779.234 62.5938C780.828 61.7812 782.156 60.5156 783.219 58.7969C784.312 57.0469 785.125 54.8125 785.656 52.0938C786.188 49.3438 786.453 46.0625 786.453 42.25Z" fill="url(#paint0_linear_5_5)"/>
<defs>
<linearGradient id="paint0_linear_5_5" x1="801" y1="37.9999" x2="-8" y2="38" gradientUnits="userSpaceOnUse">
<stop stop-color="#FF0000"/>
<stop offset="0.484375" stop-color="#E0CA00"/>
<stop offset="1" stop-color="#00FF00"/>
</linearGradient>
</defs>
</svg>
